<svg xmlns="http://www.w3.org/2000/svg" viewBox="0 0 400 400" enable-background="new 0 0 400 400"><path fill="#010B60" d="M290.4 295c-23.4 22.1-54.9 35.8-89.7 35.8-72 0-130.7-58.7-130.7-130.8 0-71.8 58.1-130.3 129.9-130.7h-.9V1.7C90 2.6 2.3 91.2 2.3 200c0 109.4 89 198.4 198.4 198.4 49.9 0 95.6-18.6 130.5-49.1l-44.4-50.8c1.3-1.1 2.4-2.4 3.6-3.5z"/><path fill="#fff" d="M199.1 1.6h.8c-.2.1-.5 0-.8 0zM331.2 349.3l.1.1c8.7-7.6 16.5-15.8 23.6-24.7-7.2 8.9-15.1 17.1-23.7 24.6zM331.3 349.4l-44.5-50.9c28.4-24.9 43.8-60.7 43.8-98.5 0-72.1-59.6-130.8-131.6-130.8V1.6c112 0 199.3 89 199.3 198.4 0 57.3-23.9 111.7-67 149.4z"/></svg>