<?xml version="1.0" encoding="utf-8"?>
<!-- Generator: Adobe Illustrator 18.1.1, SVG Export Plug-In . SVG Version: 6.00 Build 0)  -->
<svg version="1.1" id="Layer_1" xmlns="http://www.w3.org/2000/svg" xmlns:xlink="http://www.w3.org/1999/xlink" x="0px" y="0px"
	 viewBox="150.8 7.2 17.2 34.5" enable-background="new 150.8 7.2 17.2 34.5" xml:space="preserve">
<path fill="#FFFFFF" d="M167.4,8c0,1.8,0,3.6,0,5.5c-0.9,0-1.8,0-2.7,0c-0.6,0-1.1,0-1.7,0.1c-0.7,0.1-1.1,0.6-1.1,1.2
	c0,1.3,0,2.6,0,4c1.6,0,3.3,0,5,0c-0.2,1.9-0.4,3.7-0.6,5.6c-1.5,0-2.9,0-4.4,0c0,5.5,0,11,0,16.5c-2.5,0-4.9,0-7.5,0
	c0-5.5,0-10.9,0-16.4c-1,0-1.9,0-2.9,0c0-1.9,0-3.7,0-5.6c0.9,0,1.8,0,2.9,0c0-1.7-0.1-3.3,0-4.8c0.2-2.5,1.1-4.6,3.7-5.5
	c0.9-0.3,1.8-0.5,2.7-0.5C163.1,8,165.2,8,167.4,8z"/>
</svg>
