<?xml version="1.0" encoding="utf-8"?>
<!-- Generator: Adobe Illustrator 18.1.1, SVG Export Plug-In . SVG Version: 6.00 Build 0)  -->
<svg version="1.1" id="Layer_1" xmlns="http://www.w3.org/2000/svg" xmlns:xlink="http://www.w3.org/1999/xlink" x="0px" y="0px"
	 viewBox="0 0 200 183.9" enable-background="new 0 0 200 183.9" xml:space="preserve">
<g>
	<path fill="#FFFFFF" d="M195.4,138.1h-39.3l-5.9,25.3h15.3c1.7-2,4.4-2.8,8.3-2.8c4.9,0,8.2,2.3,8.2,6.1c0,3.5-3.9,5.9-8.7,5.9
		c-2.5,0-4.8-0.4-6.5-1.5c-1.2-0.7-2-1.8-2.3-2.9h-16.2c-0.5,4.4,3.4,14.3,24.5,14.3c16.5,0,25.6-6.6,25.6-15.5
		c0-10.4-8.5-14.9-18.7-14.9c-4.3,0-9,0.6-12.5,2.6l-0.2-0.1l1.6-5.8h26.6V138.1z M123.2,182.1h17.1v-44h-13.5
		c-0.5,7.3-8.7,9.7-17,9.5v9.1h13.4V182.1z M55.1,160.1c0,17,14,22.5,24.3,22.5c10.4,0,24.3-5.5,24.3-22.5s-14-22.5-24.4-22.5
		C69.1,137.6,55.1,143.1,55.1,160.1 M70.7,160.1c0-4.7,0.3-12.8,8.8-12.8c8.2,0,8.6,8.3,8.6,12.8c0,4.7-0.4,12.8-8.8,12.8
		C71.1,173,70.7,164.8,70.7,160.1 M18.2,156.7c-0.2-5.4,2.1-9,8.6-9c3.9,0,6.9,1.4,6.9,5.4c0,3.2-4.8,5-7.7,6.4
		c-7.3,3.4-15.5,6.8-20.3,11.9c-2.8,3-4.4,6.6-4.1,10.9h49.6v-10.7H25.3v-0.1v0.1c10.8-5.1,25.1-8.6,25.1-19.8
		c0-9.4-9.5-13.8-23.3-13.8c-15.4,0-25.1,7-24.2,19H18.2z"/>
	<path fill="#FFFFFF" d="M194.5,2.7h-50.6l-7.6,32.7H156c2.2-2.6,5.7-3.7,10.7-3.7c6.4,0,10.6,2.9,10.6,7.9c0,4.5-5.1,7.6-11.2,7.6
		c-3.3,0-6.2-0.6-8.4-1.9c-1.5-0.9-2.5-2.3-3-3.7h-20.9c-0.6,5.6,4.3,18.5,31.6,18.5c21.3,0,33-8.5,33-20c0-13.4-10.9-19.2-24-19.2
		c-5.5,0-11.5,0.7-16.1,3.3l-0.2-0.2l2.1-7.5h34.3V2.7z M97.3,59.4h22V2.7H102C101.3,12.1,90.7,15.2,80,15v11.7h17.3V59.4z
		 M73.8,1.2H49.9L37.7,36.5h-0.2L25.1,1.2H1.6l22.6,58.2h26L73.8,1.2z"/>
	<path fill="#FFFFFF" d="M198.4,77.6c0-3.6-3.5-6.7-7.8-6.7h-12c-0.4,0-0.6,0.1-0.6,0.4v11.6c0,0.3,0.2,0.4,0.6,0.4h3.9v25.2H177
		c-0.4,0-0.6,0.1-0.6,0.4v11.5c0,0.3,0.2,0.4,0.6,0.4h20.9c0.4,0,0.6-0.1,0.6-0.4V77.6z M171.4,97.4V77.6c0-3.6-3.4-6.7-7.9-6.7h-12
		c-0.4,0-0.6,0.1-0.6,0.4v11.6c0,0.3,0.2,0.4,0.6,0.4h3.9v14.2c0,0.2,0.4,0.4,0.6,0.4h14.9C171.1,97.8,171.4,97.7,171.4,97.4
		 M139.9,120.9c4.6,0,8.4-2.9,8.4-6.4c0-1.5-0.7-2.9-2-4.1l-8.6-8.2l4.4-3.4c4.3-3.3,5.3-5.4,5.3-9.9V77.6c0-3.6-3.5-6.7-8-6.7
		h-11.3c-0.3,0-0.6,0.1-0.6,0.4v11.5c0,0.3,0.3,0.4,0.6,0.4h3.3v6.7l-3.4,2.8l-7.6-7.3v-7.9c0-3.6-3.5-6.7-8-6.7h-11
		c-0.3,0-0.6,0.1-0.6,0.4v11.5c0,0.3,0.3,0.4,0.6,0.4h4.5v6.3c0,0.4,0.2,0.6,0.7,1.1l18.7,17.9h-23.7c-0.4,0-0.6,0.1-0.6,0.4v11.5
		c0,0.3,0.2,0.4,0.6,0.4H139.9z M95.6,77.6c0-3.6-3.5-6.7-8-6.7H54.1c-0.5,0-0.6,0.2-0.6,0.4v49.2c0,0.3,0.2,0.4,0.6,0.4h14.8
		c0.4,0,0.5-0.1,0.5-0.4V83.3h10.3v37.2c0,0.3,0.3,0.4,0.6,0.4h14.9c0.3,0,0.6-0.1,0.6-0.4V77.6z M47.2,120.5V77.6
		c0-3.6-3.4-6.7-7.9-6.7h-12c-0.4,0-0.6,0.1-0.6,0.4v11.6c0,0.3,0.2,0.4,0.6,0.4h3.9v37.2c0,0.3,0.4,0.4,0.6,0.4h14.9
		C46.9,120.9,47.2,120.7,47.2,120.5 M22,77.6c0-3.6-3.4-6.7-7.9-6.7h-12c-0.4,0-0.6,0.1-0.6,0.4v11.7c0,0.1,0.2,0.4,0.6,0.4h4v43.5
		c0,0.2,0.3,0.4,0.5,0.4h14.9c0.3,0,0.6-0.2,0.6-0.4V77.6z"/>
</g>
</svg>
