<?xml version="1.0" encoding="utf-8"?>
<!-- Generator: Adobe Illustrator 18.1.1, SVG Export Plug-In . SVG Version: 6.00 Build 0)  -->
<svg version="1.1" id="Layer_1" xmlns="http://www.w3.org/2000/svg" xmlns:xlink="http://www.w3.org/1999/xlink" x="0px" y="0px"
	 viewBox="0 0 200 200" enable-background="new 0 0 200 200" xml:space="preserve">
<g>
	<rect x="0.2" y="0.2" fill="#1F3A93" width="199.5" height="199.5"/>
	<g>
		<g>
			<path fill="#FFFFFF" d="M65.5,134.4v24.2h-4.9v-20.3H57v-3.9H65.5z"/>
			<path fill="#FFFFFF" d="M78.3,134.4V153h-4.9v-14.7h-3.1v-3.9H78.3z"/>
			<path fill="#FFFFFF" d="M88.1,138.3c-0.6,0-1.1,0-1.6,0c-0.5,0-0.9-0.1-1.3-0.1c-0.4-0.1-0.9-0.1-1.3-0.3c-0.4-0.1-1-0.3-1.5-0.5
				c0.2-0.6,0.4-1.3,0.6-1.9c0.2-0.6,0.4-1.2,0.6-1.8c0.6,0.2,1.1,0.3,1.6,0.4c0.4,0.1,0.9,0.2,1.3,0.2c0.4,0.1,0.8,0.1,1.3,0.1
				c0.4,0,1,0,1.6,0h2.2c0.8,0,1.5,0.1,2.2,0.3c0.7,0.2,1.4,0.5,2,0.9c0.6,0.5,1,1.1,1.4,1.9c0.4,0.8,0.5,1.8,0.5,3.1V153h-4.9
				v-11.1c0-0.7,0-1.3-0.1-1.8c-0.1-0.5-0.2-0.8-0.4-1.1c-0.2-0.3-0.6-0.4-1-0.5c-0.4-0.1-1-0.1-1.7-0.1H88.1z"/>
			<path fill="#FFFFFF" d="M114,134.4c0.8,0,1.5,0.1,2.2,0.3c0.7,0.2,1.4,0.5,2,0.9c0.6,0.5,1,1.1,1.4,1.9c0.4,0.8,0.5,1.9,0.5,3.2
				V153h-4.8v-11.2c0-0.7,0-1.3-0.1-1.8c-0.1-0.5-0.2-0.8-0.4-1.1c-0.2-0.3-0.6-0.4-1-0.5c-0.4-0.1-1-0.1-1.7-0.1h-3.6
				c-0.2,0.8-0.3,1.6-0.3,2.3c0,0.7-0.1,1.4-0.1,2.1V153h-4.8v-10.2c0-0.7,0.1-1.5,0.2-2.3c0.1-0.8,0.3-1.6,0.5-2.4
				c-0.4-0.1-0.8-0.1-1.3-0.3c-0.4-0.1-0.9-0.3-1.5-0.5c0.2-0.6,0.4-1.3,0.6-1.9c0.2-0.6,0.4-1.2,0.6-1.8c0.6,0.2,1.1,0.3,1.6,0.4
				c0.4,0.1,0.9,0.2,1.3,0.2c0.4,0.1,0.8,0.1,1.3,0.1c0.4,0,1,0,1.6,0H114z"/>
			<path fill="#FFFFFF" d="M142.2,140.7c-0.2,0.7-0.4,1.4-0.6,2c-0.2,0.6-0.4,1.1-0.7,1.6c-0.3,0.5-0.6,0.9-1,1.3
				c-0.4,0.4-0.8,0.8-1.3,1.2l3.9,4.5l-3.1,2.8l-9.3-10.7c-0.2,0.3-0.3,0.7-0.4,1.2c-0.1,0.5-0.2,1-0.2,1.6c0,0.6-0.1,1.2-0.1,1.8
				c0,0.6,0,1.2,0,1.7c0,0.2,0,0.4,0,0.7c0,0.3,0,0.6,0,0.9c0,0.3,0,0.7,0,1c0,0.3,0,0.7,0,1h-4.6c0-0.3,0-0.7,0-1.1
				c0-0.4,0-0.8,0-1.3c0-0.5,0-1,0-1.6c0-0.6,0-1.2,0.1-1.9c0-0.7,0.1-1.4,0.1-2c0.1-0.6,0.2-1.2,0.4-1.8c0.2-0.6,0.4-1.1,0.8-1.6
				c0.3-0.5,0.7-1.1,1.3-1.6c-0.3-0.4-0.6-0.8-0.8-1.1c-0.2-0.4-0.5-0.8-0.7-1.2c-0.2-0.4-0.4-0.8-0.6-1.3c-0.2-0.4-0.4-0.9-0.6-1.5
				c0.7-0.3,1.4-0.5,2.1-0.8c0.7-0.3,1.4-0.5,2.1-0.7c0.3,0.7,0.5,1.3,0.8,1.8c0.2,0.5,0.5,1,0.8,1.5c0.3,0.5,0.6,0.9,0.9,1.4
				c0.4,0.5,0.8,1,1.3,1.5l3.4,3.9c0.3-0.3,0.6-0.6,0.8-1c0.2-0.4,0.4-0.8,0.6-1.4c0.1-0.2,0.1-0.4,0.2-0.7c0.1-0.3,0.1-0.5,0.2-0.8
				l0.5-2.1l-2.6-0.4l0.6-3.7l6.6,1.1v2.3L142.2,140.7z"/>
			<path fill="#FFFFFF" d="M77.2,103.4c-0.6,0-1.1,0-1.6,0c-0.5,0-0.9-0.1-1.3-0.1c-0.4-0.1-0.9-0.1-1.3-0.3c-0.4-0.1-1-0.3-1.5-0.5
				c0.2-0.6,0.4-1.3,0.6-1.9c0.2-0.6,0.4-1.2,0.6-1.8c0.6,0.2,1.1,0.3,1.6,0.4c0.4,0.1,0.9,0.2,1.3,0.2c0.4,0.1,0.8,0.1,1.3,0.1
				c0.4,0,1,0,1.6,0h2.2c0.8,0,1.5,0.1,2.2,0.3c0.7,0.2,1.4,0.5,2,0.9c0.6,0.5,1,1.1,1.4,1.9c0.4,0.8,0.5,1.8,0.5,3.1v12.4h-4.9
				v-11.1c0-0.7,0-1.3-0.1-1.8c-0.1-0.5-0.2-0.8-0.4-1.1c-0.2-0.3-0.6-0.4-1-0.5c-0.4-0.1-1-0.1-1.7-0.1H77.2z"/>
			<path fill="#FFFFFF" d="M96.8,103.4c-0.6,0-1.1,0-1.6,0c-0.5,0-0.9-0.1-1.3-0.1c-0.4-0.1-0.9-0.1-1.3-0.3c-0.4-0.1-1-0.3-1.5-0.5
				c0.2-0.6,0.4-1.3,0.6-1.9c0.2-0.6,0.4-1.2,0.6-1.8c0.6,0.2,1,0.3,1.4,0.4c0.4,0.1,0.8,0.2,1.2,0.2c0.4,0.1,0.7,0.1,1.1,0.1
				c0.4,0,0.8,0,1.4,0h0.6h10.6c0.1,0.2,0.1,0.4,0.2,0.6c0,0.2,0.1,0.4,0.1,0.5c0.1,0.3,0.1,0.6,0.1,0.9c0,0.3,0,0.6,0,0.9v3.9
				c0,0.7,0,1.3-0.1,1.8c-0.1,0.6-0.2,1.1-0.4,1.6c-0.2,0.5-0.4,1-0.6,1.5c-0.3,0.5-0.6,1-0.9,1.4c-0.3,0.4-0.6,0.9-1.1,1.5
				c-0.5,0.6-0.9,1.2-1.4,1.8c-0.5,0.6-1,1.2-1.5,1.8c-0.5,0.6-1,1.1-1.4,1.5l-3.5-2.9l2.4-2.7c0.6-0.7,1.1-1.3,1.5-1.8
				c0.4-0.5,0.8-0.9,1-1.4c0.2-0.3,0.4-0.6,0.5-0.9c0.1-0.3,0.2-0.6,0.3-0.9c0.1-0.3,0.1-0.6,0.2-0.9c0-0.3,0-0.7,0-1.1v-3.2H96.8z
				 M91.2,112.6c0-0.5,0-1,0-1.4c0-0.4,0-0.8,0.1-1.2c0-0.4,0.1-0.8,0.1-1.2c0.1-0.4,0.1-0.8,0.3-1.2c0.8,0.1,1.6,0.2,2.4,0.3
				c0.8,0.1,1.6,0.3,2.4,0.5c-0.1,0.7-0.2,1.3-0.3,2c-0.1,0.7-0.1,1.5-0.1,2.3v10.9h-4.9V112.6z"/>
			<path fill="#FFFFFF" d="M124.7,99.5c0.7,0,1.5,0.1,2.2,0.3c0.7,0.2,1.4,0.5,1.9,1c0.6,0.5,1,1.1,1.3,1.9c0.3,0.8,0.5,1.9,0.6,3.2
				c0,0.3,0,0.5,0,0.8c0,0.3,0,0.6,0,0.9c0,0.3,0,0.7,0,1.2c0,0.4,0,0.9,0,1.5c0,1.2-0.3,2.3-0.7,3.3c-0.4,1-1,1.9-1.8,2.6
				c-0.8,0.7-1.6,1.3-2.7,1.7c-1,0.4-2.1,0.6-3.3,0.6c-1.2,0-2.3-0.2-3.3-0.6c-1-0.4-1.9-1-2.6-1.7c-0.7-0.7-1.3-1.6-1.8-2.6
				c-0.4-1-0.7-2.1-0.7-3.3c0-0.1,0-0.3,0-0.4s0-0.2,0-0.4c0-0.6,0-1.1,0.1-1.7c0.1-0.6,0.2-1.2,0.4-1.8c0.1-0.5,0.3-0.9,0.5-1.4
				c0.2-0.5,0.4-0.9,0.7-1.3c-0.5,0-1-0.1-1.6-0.3c-0.5-0.1-1.1-0.3-1.8-0.5c0.2-0.6,0.4-1.3,0.6-1.9c0.2-0.6,0.4-1.2,0.6-1.8
				c0.6,0.2,1,0.3,1.4,0.4c0.4,0.1,0.8,0.2,1.2,0.2c0.4,0.1,0.7,0.1,1.1,0.1c0.4,0,0.8,0,1.4,0h0.6H124.7z M119.9,103.4
				c-0.2,0.3-0.4,0.6-0.5,0.9c-0.1,0.3-0.2,0.6-0.3,0.9c-0.2,0.6-0.3,1.2-0.4,1.8c-0.1,0.7-0.1,1.3-0.1,1.9c0,0.4,0,0.7,0,1
				c0,0.3,0.1,0.6,0.1,0.9c0.1,0.6,0.2,1.1,0.4,1.5c0.2,0.4,0.5,0.8,0.8,1.2c0.3,0.3,0.7,0.6,1.1,0.7c0.4,0.2,0.9,0.3,1.4,0.3
				c0.5,0,1-0.1,1.4-0.3c0.4-0.2,0.8-0.4,1.1-0.7c0.3-0.3,0.6-0.7,0.8-1.2c0.2-0.4,0.3-0.9,0.4-1.5c0-0.3,0-0.5,0.1-0.8
				c0-0.3,0-0.6,0-1c0-0.4,0-0.8,0-1.1c0-0.4,0-0.7-0.1-1.1c-0.1-0.7-0.1-1.3-0.2-1.8c-0.1-0.5-0.2-0.8-0.4-1.1
				c-0.2-0.3-0.5-0.4-0.9-0.5c-0.4-0.1-1-0.1-1.7-0.1H119.9z"/>
		</g>
		<g>
			<g>
				<g>
					<g>
						<rect x="84" y="42" fill="#FFFFFF" width="7" height="27"/>
					</g>
				</g>
				<g>
					<g>
						<rect x="97" y="45" fill="#FFFFFF" width="6" height="24"/>
					</g>
				</g>
				<g>
					<g>
						<rect x="110" y="56" fill="#FFFFFF" width="7" height="13"/>
					</g>
				</g>
			</g>
			<g>
				<rect x="78" y="68" fill="#43D4BA" width="45" height="5"/>
			</g>
		</g>
	</g>
</g>
</svg>
